<svg width="512" height="512" viewBox="0 0 512 512" fill="none" xmlns="http://www.w3.org/2000/svg">
<path d="M245.25 15.7617C246.017 15.7519 246.785 15.7421 247.575 15.732C279.505 15.4087 308.095 19.9001 337 34C337.972 34.4674 337.972 34.4674 338.963 34.9443C353.784 42.1565 367.033 51.6938 379 63C380.329 64.1296 381.663 65.2548 383 66.375C414.736 94.2317 435.071 139.236 438 181C440.078 232.602 427.274 279.689 392.688 319C391.136 320.677 389.572 322.343 388 324C387.538 324.495 387.076 324.989 386.6 325.499C370.055 343.117 349.954 356.065 328 366C327.34 366 326.68 366 326 366C325.722 366.88 325.445 367.76 325.159 368.666C324.103 371.704 322.896 374.465 321.464 377.34C320.696 378.887 320.696 378.887 319.913 380.467C319.355 381.583 318.796 382.699 318.221 383.849C317.624 385.048 317.028 386.248 316.432 387.447C314.818 390.693 313.199 393.936 311.578 397.178C310.566 399.204 309.555 401.231 308.544 403.258C305.017 410.329 301.487 417.399 297.952 424.467C294.657 431.056 291.371 437.649 288.089 444.245C285.269 449.911 282.443 455.573 279.612 461.234C277.922 464.613 276.234 467.994 274.553 471.378C272.973 474.556 271.386 477.731 269.793 480.903C268.931 482.624 268.076 484.35 267.222 486.076C266.708 487.096 266.193 488.117 265.663 489.168C265.219 490.058 264.774 490.948 264.316 491.865C263 494 263 494 260 496C254.368 496.536 254.368 496.536 252 496C248.865 493.259 247.017 490.533 245.165 486.825C244.638 485.779 244.111 484.733 243.568 483.655C243.002 482.513 242.437 481.371 241.855 480.195C241.244 478.975 240.632 477.756 240.02 476.538C238.364 473.236 236.719 469.929 235.075 466.621C233.353 463.16 231.623 459.703 229.894 456.246C226.993 450.443 224.099 444.637 221.209 438.83C217.865 432.109 214.512 425.394 211.154 418.68C207.926 412.223 204.701 405.765 201.48 399.305C200.108 396.554 198.734 393.803 197.36 391.053C195.744 387.82 194.132 384.584 192.524 381.347C191.649 379.588 190.769 377.831 189.89 376.074C189.374 375.033 188.858 373.993 188.327 372.921C187.875 372.014 187.423 371.106 186.957 370.171C186 368 186 368 186 366C184.824 365.66 184.824 365.66 183.625 365.312C169.658 360.255 156.67 352.094 145 343C144.109 342.331 143.219 341.662 142.301 340.973C110.158 315.941 87.7499 279.708 78.1875 240.25C77.8952 239.047 77.8952 239.047 77.5969 237.82C74.6028 224.691 73.617 211.722 73.6875 198.312C73.6908 197.198 73.6908 197.198 73.6941 196.061C73.7493 184.15 74.3964 172.65 77 161C77.1934 160.103 77.3867 159.207 77.586 158.283C80.7932 143.781 85.596 130.387 92 117C92.3273 116.31 92.6545 115.619 92.9917 114.908C100.112 100.129 109.756 86.9019 121 75C122.13 73.6706 123.255 72.3374 124.375 71C153.293 38.0544 201.598 16.2252 245.25 15.7617Z" fill="#ECEEEF"/>
<path d="M245.25 15.7617C246.017 15.7519 246.785 15.7421 247.575 15.732C279.505 15.4087 308.095 19.9001 337 34C337.972 34.4674 337.972 34.4674 338.963 34.9443C353.784 42.1565 367.033 51.6938 379 63C380.329 64.1296 381.663 65.2548 383 66.375C414.736 94.2317 435.071 139.236 438 181C440.078 232.602 427.274 279.689 392.688 319C391.136 320.677 389.572 322.343 388 324C387.538 324.495 387.076 324.989 386.6 325.499C370.055 343.117 349.954 356.065 328 366C327.34 366 326.68 366 326 366C325.722 366.88 325.445 367.76 325.159 368.666C324.103 371.704 322.896 374.465 321.464 377.34C320.696 378.887 320.696 378.887 319.913 380.467C319.355 381.583 318.796 382.699 318.221 383.849C317.624 385.048 317.028 386.248 316.432 387.447C314.818 390.693 313.199 393.936 311.578 397.178C310.566 399.204 309.555 401.231 308.544 403.258C305.017 410.329 301.487 417.399 297.952 424.467C294.657 431.056 291.371 437.649 288.089 444.245C285.269 449.911 282.443 455.573 279.612 461.234C277.922 464.613 276.234 467.994 274.553 471.378C272.973 474.556 271.386 477.731 269.793 480.903C268.931 482.624 268.076 484.35 267.222 486.076C266.708 487.096 266.193 488.117 265.663 489.168C265.219 490.058 264.774 490.948 264.316 491.865C263 494 263 494 260 496C254.368 496.536 254.368 496.536 252 496C248.865 493.259 247.017 490.533 245.165 486.825C244.638 485.779 244.111 484.733 243.568 483.655C243.002 482.513 242.437 481.371 241.855 480.195C241.244 478.975 240.632 477.756 240.02 476.538C238.364 473.236 236.719 469.929 235.075 466.621C233.353 463.16 231.623 459.703 229.894 456.246C226.993 450.443 224.099 444.637 221.209 438.83C217.865 432.109 214.512 425.394 211.154 418.68C207.926 412.223 204.701 405.765 201.48 399.305C200.108 396.554 198.734 393.803 197.36 391.053C195.744 387.82 194.132 384.584 192.524 381.347C191.649 379.588 190.769 377.831 189.89 376.074C189.374 375.033 188.858 373.993 188.327 372.921C187.875 372.014 187.423 371.106 186.957 370.171C186 368 186 368 186 366C184.824 365.66 184.824 365.66 183.625 365.312C169.658 360.255 156.67 352.094 145 343C144.109 342.331 143.219 341.662 142.301 340.973C110.158 315.941 87.7499 279.708 78.1875 240.25C77.8952 239.047 77.8952 239.047 77.5969 237.82C74.6028 224.691 73.617 211.722 73.6875 198.312C73.6908 197.198 73.6908 197.198 73.6941 196.061C73.7493 184.15 74.3964 172.65 77 161C77.1934 160.103 77.3867 159.207 77.586 158.283C80.7932 143.781 85.596 130.387 92 117C92.3273 116.31 92.6545 115.619 92.9917 114.908C100.112 100.129 109.756 86.9019 121 75C122.13 73.6706 123.255 72.3374 124.375 71C153.293 38.0544 201.598 16.2252 245.25 15.7617ZM151 88C150.221 88.6935 149.443 89.387 148.641 90.1016C126.753 110.791 113.431 138.945 107 168C106.814 168.791 106.628 169.582 106.436 170.397C104.596 179.077 104.556 187.793 104.563 196.625C104.563 197.442 104.563 198.258 104.563 199.099C104.702 235.803 117.243 269.039 141 297C142.253 298.483 142.253 298.483 143.531 299.996C149.159 306.416 155.244 311.8 162 317C162.924 317.74 163.849 318.48 164.801 319.242C190.878 339.638 222.129 349.151 254.975 349.24C257.101 349.25 259.226 349.281 261.352 349.312C299.892 349.61 336.672 331.454 363.984 305.039C389.708 279.431 406.924 242.535 408 206C408.026 205.336 408.052 204.673 408.078 203.989C409.551 162.456 394.204 123.631 366.133 93.2617C365.429 92.5153 364.725 91.769 364 91C363.068 89.9887 363.068 89.9887 362.117 88.957C336.714 62.3313 297.925 46.8183 261.441 45.7969C219.266 45.2371 182.4 59.8681 151 88Z" fill="#EF5451"/>
<path d="M243 46C270.815 45.5471 296.802 48.3582 322 61C322.644 61.3173 323.288 61.6345 323.952 61.9614C332.566 66.2378 340.422 71.0357 348 77C348.891 77.6871 349.781 78.3741 350.699 79.082C382.965 104.628 402.604 141.667 407.562 182.402C411.631 220.825 399.983 260.77 376 291C375.601 291.506 375.202 292.012 374.791 292.533C350.812 322.673 315.834 343.459 277.457 348.73C270.315 349.287 263.157 349.145 256 349C255.579 338.087 260.173 330.203 267.328 322.254C274.399 316.289 282.363 313.745 291.125 311.188C310.413 305.27 325.274 295.863 340 282C340.603 281.461 341.207 280.922 341.828 280.367C352.32 270.611 359.133 257.876 365 245C365.495 243.925 365.99 242.85 366.5 241.742C377.892 215.771 377.216 182.795 367.812 156.25C362.406 143.503 355.854 131.67 347 121C346.277 120.102 345.554 119.203 344.809 118.277C329.025 99.7165 307.434 88.6802 284.312 82.0625C274.223 79.0162 266.22 74.1968 260.82 64.9883C257.64 58.8937 256 53.9926 256 47C251.71 47 247.42 47 243 47C243 46.67 243 46.34 243 46Z" fill="#CFD7DB"/>
<path d="M243.309 200.734C244.275 200.732 245.241 200.731 246.236 200.729C248.269 200.727 250.302 200.731 252.335 200.739C255.425 200.75 258.514 200.739 261.604 200.727C263.589 200.728 265.574 200.73 267.559 200.734C268.471 200.73 269.384 200.726 270.325 200.722C279.429 200.788 287.049 202.567 295.125 206.75C295.824 207.11 296.524 207.47 297.244 207.841C310.562 214.863 319.455 226.6 324 241C326.312 248.917 326.372 256.749 326.371 264.931C326.375 267.259 326.412 269.586 326.449 271.914C326.455 273.406 326.459 274.898 326.461 276.391C326.475 277.08 326.49 277.77 326.505 278.481C326.459 283.253 325.368 285.647 322 289C319.483 290.258 317.751 290.134 314.934 290.147C313.861 290.154 312.789 290.161 311.684 290.169C310.502 290.172 309.32 290.174 308.102 290.177C306.241 290.187 306.241 290.187 304.343 290.197C300.933 290.213 297.524 290.225 294.115 290.233C291.985 290.238 289.855 290.244 287.726 290.251C281.063 290.27 274.4 290.284 267.737 290.292C260.044 290.302 252.352 290.328 244.66 290.369C238.715 290.399 232.77 290.414 226.825 290.417C223.274 290.419 219.724 290.428 216.173 290.453C212.21 290.481 208.248 290.477 204.286 290.47C202.522 290.489 202.522 290.489 200.723 290.509C192.77 290.458 192.77 290.458 188.795 288.096C185.658 284.432 185.825 281.422 185.797 276.789C185.791 276.066 185.785 275.342 185.78 274.597C185.77 273.059 185.764 271.52 185.76 269.982C185.75 267.669 185.719 265.356 185.688 263.043C185.557 245.068 190.134 229.2 203 216C214.842 205.76 227.754 200.666 243.309 200.734Z" fill="#3E82C4"/>
<path d="M290.023 102.656C297.875 109.925 304.45 121.196 305.126 132.02C305.707 149.19 303.019 162.06 291.039 175.121C280.164 185.142 267.062 189.427 252.508 189.277C239.428 188.243 226.851 181.64 218 172C207.773 158.097 205.465 145.003 207 128C208.079 123.559 209.676 119.921 212 116C212.469 115.184 212.938 114.368 213.422 113.527C220.364 102.348 230.316 94.777 243 91C260.421 87.4447 276.329 91.4469 290.023 102.656Z" fill="#3D82C4"/>
</svg>
